<svg width="31" height="31" viewBox="0 0 31 31" fill="none" xmlns="http://www.w3.org/2000/svg">
<g id="Vector">
<path d="M15.5969 0.381988C12.2586 0.403385 8.95833 1.5933 6.36544 3.68584L9.19852 6.97482C11.5896 5.08804 14.8113 4.31917 17.7994 4.91316C19.4416 5.22905 21.0042 5.95004 22.3226 6.97482L25.1557 3.68584C22.4738 1.52189 19.0501 0.330247 15.5969 0.381988Z" fill="#4C4865"/>
<path d="M5.44312 4.49403C2.45792 7.29825 0.707609 11.3746 0.762995 15.4865C0.764765 19.7546 2.71193 23.9472 5.9456 26.7202C8.93465 29.3342 12.9999 30.6658 16.9687 30.329C21.2692 30.0087 25.3511 27.712 27.8745 24.2224C30.3308 20.9063 31.2931 16.5333 30.4777 12.478C29.8783 9.37377 28.2507 6.49685 25.9359 4.35851L23.1028 7.64749C25.3856 9.799 26.632 12.9748 26.397 16.1079C26.2942 17.6602 25.8433 19.1922 25.0813 20.5555L19.3077 14.9791L16.3947 8.70055L16.3903 18.2086L22.2251 23.8544C19.625 25.8743 16.0574 26.5442 12.8962 25.6489C11.609 25.2899 10.3901 24.6875 9.33075 23.8792L15.2052 18.2086C15.1949 15.1173 15.2411 11.7803 15.2051 8.69033L12.2878 14.9791L6.46461 20.6018C4.68809 17.5008 4.64559 13.4919 6.35552 10.3563C6.89007 9.35184 7.59757 8.43513 8.41835 7.64749L5.58527 4.35851C5.53788 4.40368 5.4905 4.44886 5.44312 4.49403Z" fill="#4C4865"/>
</g>
</svg>
